<svg preserveAspectRatio="none" overflow="visible" style="display: block;" width="16" height="16" viewBox="0 0 16 16" fill="none" xmlns="http://www.w3.org/2000/svg">
<g id="Jobs 16px">
<path id="Rectangle 34625271" d="M4.52278 13.5H11.4772C12.3919 13.5 13.1674 12.8179 13.2968 11.8996C13.5677 9.97631 13.5677 8.02369 13.2968 6.10036C13.1674 5.18208 12.3919 4.5 11.4772 4.5H4.52278C3.60807 4.5 2.83256 5.18208 2.70321 6.10036C2.43226 8.02369 2.43226 9.97631 2.70321 11.8996C2.83256 12.8179 3.60808 13.5 4.52278 13.5Z" stroke="#000050"/>
<path id="Rectangle 34625272" d="M2.65625 6.5C2.65625 10.5 13.3594 10.5 13.3594 6.5" stroke="#000050"/>
<path id="Vector 3953" d="M6 4.5V3.16667C6 2.79848 6.29848 2.5 6.66667 2.5H9.33333C9.70152 2.5 10 2.79848 10 3.16667V4.5" stroke="#000050" stroke-linecap="round" stroke-linejoin="round"/>
<path id="Vector 3982" d="M8 9.49996V10.5" stroke="#000050" stroke-linecap="round"/>
</g>
</svg>
